# xmcd CD database file
#
# Track frame offsets:
#	150
#	18514
#	38241
#	62859
#	84982
#	114112
#	137249
#	159084
#	180563
#	199850
#	224368
#	250186
#	270202
#	292793
#
# Disc length: 4169 seconds
#
# Revision: 2
# Processed by: cddbd v1.5.2PL0 Copyright (c) Steve Scherf et al.
# Submitted via: CDex 1.70beta3
#
DISCID=b610470e
DTITLE=平松愛理 - 平松愛理 ベスト・コレクション
DYEAR=1900
DGENRE=rock
TTITLE0=虹がきらい
TTITLE1=渚のエンブレム (More sweetened version)
TTITLE2=もう笑うしかない
TTITLE3=一夜一代に夢見頃
TTITLE4=戻れない道
TTITLE5=部屋とYシャツと私
TTITLE6=マイ セレナーデ
TTITLE7=Single is Best !?
TTITLE8=おしえて神様
TTITLE9=ごきげんよう
TTITLE10=この街のどこかで
TTITLE11=素敵なルネッサンス
TTITLE12=思い出の坂道
TTITLE13=月のランプ
EXTD=
EXTT0=
EXTT1=
EXTT2=
EXTT3=
EXTT4=
EXTT5=
EXTT6=
EXTT7=
EXTT8=
EXTT9=
EXTT10=
EXTT11=
EXTT12=
EXTT13=
PLAYORDER=
